<?xml version="1.0" encoding="utf-8"?>
<!-- Generator: Adobe Illustrator 19.0.0, SVG Export Plug-In . SVG Version: 6.00 Build 0)  -->
<svg version="1.1" id="layer" xmlns="http://www.w3.org/2000/svg" xmlns:xlink="http://www.w3.org/1999/xlink" x="0px" y="0px"
	 viewBox="-153 -46 652 652" style="enable-background:new -153 -46 652 652;" xml:space="preserve">
<style type="text/css">
	.st0{clip-path:url(#SVGID_2_);fill:#26B39E;}
</style>
<g>
	<defs>
		<path id="SVGID_1_" d="M-68.4,276.5c0-0.6,0-1.2,0-1.7c-0.7-10,6.8-18.7,16.8-19.4c0.7,0,1.3-0.1,2,0c25.3-0.1,25.3,38.9,0.1,38.9
			c-0.2,0-0.4,0-0.6,0C-59.9,294.3-68.1,286.5-68.4,276.5 M-50.2,242.5c-18.6,0-31.8,12.5-31.8,32.2s12.7,32.7,31.3,32.6
			c8,0.2,15.6-3.7,20.2-10.2l0.5,8v0.5h13v-61.8h-13.3v0.6l-0.3,7.7c-4.4-6-11.5-9.6-19-9.6C-49.8,242.5-50,242.5-50.2,242.5
			 M247.3,276.5c0-0.6,0-1.1,0-1.7c-0.7-10,6.8-18.7,16.8-19.4c0.7,0,1.4-0.1,2.1,0c25.1,0,25.1,39,0,39c-0.2,0-0.4,0-0.6,0
			C255.8,294.4,247.6,286.5,247.3,276.5 M265.3,242.5c-18.5,0-31.8,12.5-31.8,32.2s12.7,32.7,31.4,32.6c8.1,0.2,15.8-3.8,20.3-10.5
			l0.5,8.3v0.5h13.1v-61.8h-13.3v0.6l-0.3,7.8c-4.4-6.1-11.5-9.8-19.1-9.8C265.8,242.5,265.5,242.5,265.3,242.5 M339.3,242.4
			c-18.9,0-32.2,12.4-32.2,32.4c-1.1,16.8,11.6,31.3,28.4,32.4c1.3,0.1,2.5,0.1,3.8,0c8.7,0.2,17.1-3.3,23.2-9.6l0.4-0.4l-0.4-0.4
			l-8.6-8.4l-0.4-0.4l-0.4,0.4c-3.6,3.6-8.5,5.6-13.6,5.5c-9.7,0.6-18.1-6.8-18.7-16.6c-0.1-0.9,0-1.7,0-2.6
			c-0.6-10,7.1-18.6,17.1-19.1c0.5,0,1,0,1.4,0h0.1c4.9,0,9.6,1.8,13.1,5.2l0.4,0.4l0.4-0.5l8-8.5l0.4-0.4l-0.4-0.4
			c-5.6-5.8-13.3-9.1-21.4-9.1C339.8,242.4,339.5,242.4,339.3,242.4 M397.8,254.7c9.9,0,16.2,4.8,17.1,13.4h-35.1
			C381.6,259.9,389.3,254.1,397.8,254.7 M365.2,271.6c0,0.9,0,1.9,0,2.8c0,19.8,13,32.7,32.9,32.7c9.8,0.2,19.2-3.6,26.2-10.5
			l0.4-0.4l-0.4-0.4l-8.2-8l-0.5-0.5l-0.4,0.5c-4.6,4.2-10.7,6.5-16.9,6.3c-10.3,0-17.6-5.5-18.9-14H428v-0.7
			c2.3-23.6-9.7-37.1-30.7-37.1c-0.5,0-0.9,0-1.4,0C379.6,242.2,366,255.1,365.2,271.6 M127,242.3c-14.2,0-25.5,6.9-25.5,19
			c0,12.2,9.4,17.3,25,18.8c9.4,0.9,13.6,3.1,13.4,7.8c-0.3,4.6-5.3,7.3-12.2,7.3h-0.1c-7.8,0-15.2-3.2-20.6-8.8l-0.5-0.5l-0.4,0.6
			l-6.5,9.1l-0.3,0.4l0.3,0.4c7,7.7,17.1,11.9,27.5,11.2c15.6,0,26-7.9,26.2-19.8c0.4-6.5-3.1-12.6-8.9-15.5
			c-5.4-2.5-11.2-3.9-17.1-4.1c-8.3-0.8-12.4-3-12.5-7.2c-0.1-4.2,4.5-6.8,12.2-6.6c5.7-0.4,11.3,1.6,15.4,5.5l0.4,0.4l0.4-0.5
			l7.1-8.4l0.4-0.5l-0.4-0.4c-5.9-5.4-13.7-8.3-21.6-8.3C128,242.2,127.5,242.2,127,242.3 M-120.2,218.5V244H-132v12.1h11.6v28.3
			c0,14.5,7.6,22.4,21,22c4.2,0,8.4-1,12.3-2.8h0.5v-0.5l-3.7-10.8v-0.6l-0.6,0.3c-2.4,1.2-5,1.8-7.7,1.8c-5.4,0-8-3.2-8-9.4v-28.3
			H-89V244h-17.6v-25.5H-120.2z M-2.8,218.5v87.2h0.5h13.1v-87.2H-2.8z M194.3,256.1c9.7-0.4,17.8,7.2,18.2,16.9c0,0.6,0,1.2,0,1.9
			c0.5,9.8-7.1,18.2-17,18.7c-0.4,0-0.8,0-1.2,0c-10,0-18.2-8.1-18.2-18.2c0-0.2,0-0.4,0-0.6c-0.6-9.8,6.9-18.1,16.7-18.7
			C193.3,256.1,193.8,256.1,194.3,256.1L194.3,256.1z M72.5,193.4c-4.2,0-7.7,3.5-7.7,7.7V238l-26.2,29.5v-49H24.9v87.2h13.6v-27.1
			l26.2,28.7V307v41.6c0,4.3,3.4,7.7,7.7,7.7H175V298c5,6.1,12.6,9.5,20.6,9.1c18.6,0,30.9-13.2,30.9-32.2c0-19-12.8-32.1-30.9-32.2
			c-8.1-0.1-15.8,3.6-20.7,10l-0.6-8.2v-0.5h-13v98.5h-81c-1,0-1.8-0.8-1.8-1.8v-38.5l-26.9-28.8L78.5,244v-34.9
			c0-1,0.8-1.8,1.8-1.8h372.6c1,0,1.8,0.8,1.8,1.8v131.2c0,1-0.8,1.8-1.8,1.8H186v14h0.6h273.7c4.3,0,7.7-3.5,7.7-7.7V201.1
			c0-4.2-3.4-7.7-7.7-7.7H72.5z"/>
	</defs>
	<clipPath id="SVGID_2_">
		<use xlink:href="#SVGID_1_"  style="overflow:visible;"/>
	</clipPath>
	<rect x="-154.6" y="170.7" class="st0" width="645.5" height="208.3"/>
</g>
</svg>
