<?xml version="1.0" encoding="utf-8"?>
<!-- Generator: Adobe Illustrator 26.0.3, SVG Export Plug-In . SVG Version: 6.00 Build 0)  -->
<svg version="1.0" id="katman_1" xmlns="http://www.w3.org/2000/svg" xmlns:xlink="http://www.w3.org/1999/xlink" x="0px" y="0px"
	 viewBox="0 0 182 131.4" style="enable-background:new 0 0 182 131.4;" xml:space="preserve">
<style type="text/css">
	.st0{fill-rule:evenodd;clip-rule:evenodd;fill:#00585F;stroke:#00585F;stroke-width:0.5;}
</style>
<g id="Page-1">
	<g id="desktop-copy-2" transform="translate(-16.000000, -19.000000)">
		<g id="Group-6-Copy" transform="translate(17.000000, 20.000000)">
			<path id="Fill-2-Copy-4" class="st0" d="M109.2,64.7c0-3.1,2.1-5,4.7-5c6.3,0,6.3,10,0,10C111.3,69.7,109.2,67.8,109.2,64.7
				L109.2,64.7z M118.6,69.8l0.2,2.4h2.9v-15h-3l-0.1,2.4c-0.9-1.7-2.9-2.7-5-2.7c-4.2,0-7.6,2.8-7.6,7.8c0,5.1,3.2,7.9,7.5,7.9
				C115.4,72.6,117.7,71.7,118.6,69.8L118.6,69.8z M131.7,59.8c1.2,0,2.4,0.4,3.3,1.3l2-2.1c-1.6-1.6-3.3-2.2-5.3-2.2
				c-4.2,0-7.7,2.7-7.7,7.9c0,5.2,3.5,7.9,7.7,7.9c2.1,0,3.9-0.7,5.5-2.3l-2.1-2.1c-0.9,1-2.2,1.4-3.5,1.4c-2.5,0-4.7-1.7-4.7-4.8
				C127,61.7,129.1,59.8,131.7,59.8L131.7,59.8z M80,69.9c-1.7,0-3.8-0.7-5.1-2.2l-1.6,2.2c1.9,2.2,4.3,2.8,6.7,2.8
				c3.8,0,6.2-1.9,6.2-4.7c0-3.9-3.5-4.5-6.2-4.7c-1.9-0.2-3.1-0.7-3.2-1.9c0-1.2,1.2-1.8,3.1-1.8c1.5,0,2.7,0.3,3.9,1.4l1.7-2.1
				c-1.6-1.5-3.4-2-5.6-2c-2.7,0-6.1,1.2-6.1,4.6c0,3.3,3.2,4.2,6,4.5c2.2,0.2,3.4,0.7,3.4,2.1C83.1,69.3,81.5,69.9,80,69.9L80,69.9
				z M96.4,59.9c2.8,0,4.6,2,4.6,4.8c0,2.8-2,4.8-4.6,4.8c-2.7,0-4.6-2.1-4.6-4.8C91.8,62,93.5,59.9,96.4,59.9L96.4,59.9z
				 M66.6,44.7c-1,0-1.7,0.8-1.7,1.7v9.3l-6.7,7.6V50.9h-3.1v21.3h3.1v-6.9l6.7,7.4V83c0,1,0.8,1.7,1.7,1.7h24.9V70
				c1.1,1.9,3.4,2.5,5.2,2.5c4.5,0,7.4-3.3,7.4-7.8c0-4.5-3-7.8-7.4-7.8c-2,0-4,0.9-5.2,2.7l-0.2-2.4h-2.9v24.3l-19.9,0
				c-0.3,0-0.6-0.2-0.6-0.6v-9.5l-6.6-7.2l6.6-7.3v-8.5c0-0.3,0.3-0.6,0.6-0.6h90.8c0.3,0,0.6,0.3,0.6,0.6v32.5
				c0,0.3-0.3,0.6-0.6,0.6l-64.8,0v3.2l66.7,0c1,0,1.7-0.8,1.7-1.7V46.4c0-0.9-0.8-1.7-1.7-1.7H66.6z M141.4,63.2
				c0.5-2.4,2.3-3.6,4.5-3.6c2.5,0,4.1,1.2,4.3,3.6H141.4z M145.9,56.8c-4.6,0-7.7,3.3-7.7,7.8c0,4.8,3.1,7.9,7.9,7.9
				c2.3,0,4.8-0.9,6.3-2.6l-2-2c-0.9,1-2.8,1.6-4.2,1.6c-2.7,0-4.5-1.5-4.8-3.8h11.9C153.8,59.8,150.6,56.8,145.9,56.8L145.9,56.8z
				 M37,69.7c-2.6,0-4.7-1.9-4.7-5c0-3.1,2.1-5,4.7-5C43.3,59.7,43.3,69.7,37,69.7L37,69.7z M41.7,59.6c-0.9-1.7-2.9-2.7-5-2.7
				c-4.2,0-7.6,2.8-7.6,7.8c0,5.1,3.2,7.9,7.5,7.9c1.8,0,4.1-0.9,5-2.8l0.2,2.4h2.9v-15h-3L41.7,59.6z M25,69.6
				c-1.4,0-2.1-0.9-2.1-2.5v-7.2h4.3v-2.7h-4.3v-6.3h-3.1v6.3H17v2.7h2.8v7.2c0,3.5,1.8,5.4,5,5.3c1,0,1.9-0.2,2.9-0.7L26.8,69
				C26.3,69.3,25.6,69.6,25,69.6L25,69.6z M48.4,72.2h3.1V50.9h-3.1V72.2z"/>
		</g>
	</g>
</g>
</svg>
